<?xml version="1.0" standalone="no"?><!DOCTYPE svg PUBLIC "-//W3C//DTD SVG 1.1//EN" "http://www.w3.org/Graphics/SVG/1.1/DTD/svg11.dtd"><svg t="1776080842299" class="icon" viewBox="0 0 1024 1024" version="1.1" xmlns="http://www.w3.org/2000/svg" p-id="5637" xmlns:xlink="http://www.w3.org/1999/xlink" width="200" height="200"><path d="M853.333333 170.666667 170.666667 170.666667C123.733333 170.666667 85.333333 209.066667 85.333333 256l0 512c0 46.933333 38.4 85.333333 85.333333 85.333333l682.666667 0c46.933333 0 85.333333-38.4 85.333333-85.333333L938.666667 256C938.666667 209.066667 900.266667 170.666667 853.333333 170.666667zM640 768 170.666667 768l0-170.666667 469.333333 0L640 768zM640 554.666667 170.666667 554.666667 170.666667 384l469.333333 0L640 554.666667zM853.333333 768l-170.666667 0L682.666667 384l170.666667 0L853.333333 768z" p-id="5638"></path></svg>